<svg id="visual" viewBox="0 0 900 600" width="900" height="600" xmlns="http://www.w3.org/2000/svg" xmlns:xlink="http://www.w3.org/1999/xlink" version="1.1"><rect x="0" y="0" width="900" height="600" fill="#9076C0"></rect><path d="M0 492L13.7 486.8C27.3 481.7 54.7 471.3 82 468.5C109.3 465.7 136.7 470.3 163.8 476.2C191 482 218 489 245.2 485.2C272.3 481.3 299.7 466.7 327 468.2C354.3 469.7 381.7 487.3 409 493.2C436.3 499 463.7 493 491 487.8C518.3 482.7 545.7 478.3 573 475.3C600.3 472.3 627.7 470.7 654.8 472.7C682 474.7 709 480.3 736.2 481.8C763.3 483.3 790.7 480.7 818 475.7C845.3 470.7 872.7 463.3 886.3 459.7L900 456L900 601L886.3 601C872.7 601 845.3 601 818 601C790.7 601 763.3 601 736.2 601C709 601 682 601 654.8 601C627.7 601 600.3 601 573 601C545.7 601 518.3 601 491 601C463.7 601 436.3 601 409 601C381.7 601 354.3 601 327 601C299.7 601 272.3 601 245.2 601C218 601 191 601 163.8 601C136.7 601 109.3 601 82 601C54.7 601 27.3 601 13.7 601L0 601Z" fill="#7f3dd9"></path><path d="M0 481L13.7 482C27.3 483 54.7 485 82 484.2C109.3 483.3 136.7 479.7 163.8 484C191 488.3 218 500.7 245.2 501.5C272.3 502.3 299.7 491.7 327 488.3C354.3 485 381.7 489 409 490.2C436.3 491.3 463.7 489.7 491 489.2C518.3 488.7 545.7 489.3 573 490.8C600.3 492.3 627.7 494.7 654.8 493.2C682 491.7 709 486.3 736.2 490.5C763.3 494.7 790.7 508.3 818 509.8C845.3 511.3 872.7 500.7 886.3 495.3L900 490L900 601L886.3 601C872.7 601 845.3 601 818 601C790.7 601 763.3 601 736.2 601C709 601 682 601 654.8 601C627.7 601 600.3 601 573 601C545.7 601 518.3 601 491 601C463.7 601 436.3 601 409 601C381.7 601 354.3 601 327 601C299.7 601 272.3 601 245.2 601C218 601 191 601 163.8 601C136.7 601 109.3 601 82 601C54.7 601 27.3 601 13.7 601L0 601Z" fill="#642ea3"></path><path d="M0 535L13.7 535.3C27.3 535.7 54.7 536.3 82 532.5C109.3 528.7 136.7 520.3 163.8 518C191 515.7 218 519.3 245.2 524.5C272.3 529.7 299.7 536.3 327 537.3C354.3 538.3 381.7 533.7 409 534.2C436.3 534.7 463.7 540.3 491 538.7C518.3 537 545.7 528 573 520.8C600.3 513.7 627.7 508.3 654.8 505.8C682 503.3 709 503.7 736.2 509.5C763.3 515.3 790.7 526.7 818 533C845.3 539.3 872.7 540.7 886.3 541.3L900 542L900 601L886.3 601C872.7 601 845.3 601 818 601C790.7 601 763.3 601 736.2 601C709 601 682 601 654.8 601C627.7 601 600.3 601 573 601C545.7 601 518.3 601 491 601C463.7 601 436.3 601 409 601C381.7 601 354.3 601 327 601C299.7 601 272.3 601 245.2 601C218 601 191 601 163.8 601C136.7 601 109.3 601 82 601C54.7 601 27.3 601 13.7 601L0 601Z" fill="#492071"></path><path d="M0 536L13.7 540.7C27.3 545.3 54.7 554.7 82 554.2C109.3 553.7 136.7 543.3 163.8 539.3C191 535.3 218 537.7 245.2 537.3C272.3 537 299.7 534 327 537.7C354.3 541.3 381.7 551.7 409 554.7C436.3 557.7 463.7 553.3 491 549.5C518.3 545.7 545.7 542.3 573 542.8C600.3 543.3 627.7 547.7 654.8 546.8C682 546 709 540 736.2 537C763.3 534 790.7 534 818 535.3C845.3 536.7 872.7 539.3 886.3 540.7L900 542L900 601L886.3 601C872.7 601 845.3 601 818 601C790.7 601 763.3 601 736.2 601C709 601 682 601 654.8 601C627.7 601 600.3 601 573 601C545.7 601 518.3 601 491 601C463.7 601 436.3 601 409 601C381.7 601 354.3 601 327 601C299.7 601 272.3 601 245.2 601C218 601 191 601 163.8 601C136.7 601 109.3 601 82 601C54.7 601 27.3 601 13.7 601L0 601Z" fill="#2e1443"></path><path d="M0 573L13.7 572.3C27.3 571.7 54.7 570.3 82 569C109.3 567.7 136.7 566.3 163.8 567.5C191 568.7 218 572.3 245.2 573.8C272.3 575.3 299.7 574.7 327 572C354.3 569.3 381.7 564.7 409 563.3C436.3 562 463.7 564 491 567.7C518.3 571.3 545.7 576.7 573 576.8C600.3 577 627.7 572 654.8 568.5C682 565 709 563 736.2 563.5C763.3 564 790.7 567 818 567.2C845.3 567.3 872.7 564.7 886.3 563.3L900 562L900 601L886.3 601C872.7 601 845.3 601 818 601C790.7 601 763.3 601 736.2 601C709 601 682 601 654.8 601C627.7 601 600.3 601 573 601C545.7 601 518.3 601 491 601C463.7 601 436.3 601 409 601C381.7 601 354.3 601 327 601C299.7 601 272.3 601 245.2 601C218 601 191 601 163.8 601C136.7 601 109.3 601 82 601C54.7 601 27.3 601 13.7 601L0 601Z" fill="#15021b"></path></svg>