<svg id="visual" viewBox="0 0 900 600" width="900" height="600" xmlns="http://www.w3.org/2000/svg" xmlns:xlink="http://www.w3.org/1999/xlink" version="1.1"><path d="M0 400L21.5 401C43 402 86 404 128.8 415.2C171.7 426.3 214.3 446.7 257.2 447.8C300 449 343 431 385.8 432.5C428.7 434 471.3 455 514.2 454C557 453 600 430 642.8 418.7C685.7 407.3 728.3 407.7 771.2 414.5C814 421.3 857 434.7 878.5 441.3L900 448L900 601L878.5 601C857 601 814 601 771.2 601C728.3 601 685.7 601 642.8 601C600 601 557 601 514.2 601C471.3 601 428.7 601 385.8 601C343 601 300 601 257.2 601C214.3 601 171.7 601 128.8 601C86 601 43 601 21.5 601L0 601Z" fill="#f1a9d0"></path><path d="M0 440L21.5 445.2C43 450.3 86 460.7 128.8 460.7C171.7 460.7 214.3 450.3 257.2 452.2C300 454 343 468 385.8 470.8C428.7 473.7 471.3 465.3 514.2 458.3C557 451.3 600 445.7 642.8 451.5C685.7 457.3 728.3 474.7 771.2 482.8C814 491 857 490 878.5 489.5L900 489L900 601L878.5 601C857 601 814 601 771.2 601C728.3 601 685.7 601 642.8 601C600 601 557 601 514.2 601C471.3 601 428.7 601 385.8 601C343 601 300 601 257.2 601C214.3 601 171.7 601 128.8 601C86 601 43 601 21.5 601L0 601Z" fill="#dd9acc"></path><path d="M0 479L21.5 481.8C43 484.7 86 490.3 128.8 498.2C171.7 506 214.3 516 257.2 512.3C300 508.7 343 491.3 385.8 484.3C428.7 477.3 471.3 480.7 514.2 480.8C557 481 600 478 642.8 478C685.7 478 728.3 481 771.2 482.2C814 483.3 857 482.7 878.5 482.3L900 482L900 601L878.5 601C857 601 814 601 771.2 601C728.3 601 685.7 601 642.8 601C600 601 557 601 514.2 601C471.3 601 428.7 601 385.8 601C343 601 300 601 257.2 601C214.3 601 171.7 601 128.8 601C86 601 43 601 21.5 601L0 601Z" fill="#c68dc8"></path><path d="M0 523L21.5 520.7C43 518.3 86 513.7 128.8 517.2C171.7 520.7 214.3 532.3 257.2 534.3C300 536.3 343 528.7 385.8 523.3C428.7 518 471.3 515 514.2 518.7C557 522.3 600 532.7 642.8 536.5C685.7 540.3 728.3 537.7 771.2 537.7C814 537.7 857 540.3 878.5 541.7L900 543L900 601L878.5 601C857 601 814 601 771.2 601C728.3 601 685.7 601 642.8 601C600 601 557 601 514.2 601C471.3 601 428.7 601 385.8 601C343 601 300 601 257.2 601C214.3 601 171.7 601 128.8 601C86 601 43 601 21.5 601L0 601Z" fill="#ad81c4"></path><path d="M0 541L21.5 546.8C43 552.7 86 564.3 128.8 568C171.7 571.7 214.3 567.3 257.2 564.5C300 561.7 343 560.3 385.8 558.5C428.7 556.7 471.3 554.3 514.2 555C557 555.7 600 559.3 642.8 562.2C685.7 565 728.3 567 771.2 565.5C814 564 857 559 878.5 556.5L900 554L900 601L878.5 601C857 601 814 601 771.2 601C728.3 601 685.7 601 642.8 601C600 601 557 601 514.2 601C471.3 601 428.7 601 385.8 601C343 601 300 601 257.2 601C214.3 601 171.7 601 128.8 601C86 601 43 601 21.5 601L0 601Z" fill="#9076c0"></path></svg>