<svg id="visual" viewBox="0 0 900 600" width="900" height="600" xmlns="http://www.w3.org/2000/svg" xmlns:xlink="http://www.w3.org/1999/xlink" version="1.1"><rect x="0" y="0" width="900" height="600" fill="#9076c0"></rect><path d="M0 450L21.5 453.3C43 456.7 86 463.3 128.8 471C171.7 478.7 214.3 487.3 257.2 492.5C300 497.7 343 499.3 385.8 492.3C428.7 485.3 471.3 469.7 514.2 466.5C557 463.3 600 472.7 642.8 472C685.7 471.3 728.3 460.7 771.2 459.7C814 458.7 857 467.3 878.5 471.7L900 476L900 601L878.5 601C857 601 814 601 771.2 601C728.3 601 685.7 601 642.8 601C600 601 557 601 514.2 601C471.3 601 428.7 601 385.8 601C343 601 300 601 257.2 601C214.3 601 171.7 601 128.8 601C86 601 43 601 21.5 601L0 601Z" fill="#b675bf"></path><path d="M0 507L21.5 509.5C43 512 86 517 128.8 512.5C171.7 508 214.3 494 257.2 486.5C300 479 343 478 385.8 480.8C428.7 483.7 471.3 490.3 514.2 492.7C557 495 600 493 642.8 490.7C685.7 488.3 728.3 485.7 771.2 489.7C814 493.7 857 504.3 878.5 509.7L900 515L900 601L878.5 601C857 601 814 601 771.2 601C728.3 601 685.7 601 642.8 601C600 601 557 601 514.2 601C471.3 601 428.7 601 385.8 601C343 601 300 601 257.2 601C214.3 601 171.7 601 128.8 601C86 601 43 601 21.5 601L0 601Z" fill="#a46fc5"></path><path d="M0 510L21.5 514C43 518 86 526 128.8 530.3C171.7 534.7 214.3 535.3 257.2 533.5C300 531.7 343 527.3 385.8 524.5C428.7 521.7 471.3 520.3 514.2 520.2C557 520 600 521 642.8 521.3C685.7 521.7 728.3 521.3 771.2 518.7C814 516 857 511 878.5 508.5L900 506L900 601L878.5 601C857 601 814 601 771.2 601C728.3 601 685.7 601 642.8 601C600 601 557 601 514.2 601C471.3 601 428.7 601 385.8 601C343 601 300 601 257.2 601C214.3 601 171.7 601 128.8 601C86 601 43 601 21.5 601L0 601Z" fill="#8d6acc"></path><path d="M0 531L21.5 533.2C43 535.3 86 539.7 128.8 540.3C171.7 541 214.3 538 257.2 536.5C300 535 343 535 385.8 538.2C428.7 541.3 471.3 547.7 514.2 548.5C557 549.3 600 544.7 642.8 541.8C685.7 539 728.3 538 771.2 538.2C814 538.3 857 539.7 878.5 540.3L900 541L900 601L878.5 601C857 601 814 601 771.2 601C728.3 601 685.7 601 642.8 601C600 601 557 601 514.2 601C471.3 601 428.7 601 385.8 601C343 601 300 601 257.2 601C214.3 601 171.7 601 128.8 601C86 601 43 601 21.5 601L0 601Z" fill="#6e67d2"></path><path d="M0 562L21.5 564.5C43 567 86 572 128.8 570.8C171.7 569.7 214.3 562.3 257.2 561.2C300 560 343 565 385.8 567C428.7 569 471.3 568 514.2 566C557 564 600 561 642.8 563.8C685.7 566.7 728.3 575.3 771.2 575.2C814 575 857 566 878.5 561.5L900 557L900 601L878.5 601C857 601 814 601 771.2 601C728.3 601 685.7 601 642.8 601C600 601 557 601 514.2 601C471.3 601 428.7 601 385.8 601C343 601 300 601 257.2 601C214.3 601 171.7 601 128.8 601C86 601 43 601 21.5 601L0 601Z" fill="#3d65d8"></path></svg>